<svg width="17" height="17" viewBox="0 0 17 16">
                            <path d="M2.7 1a.7.7 0 0 0-.7.7v12.6a.7.7 0 0 0 .7.7h2.6a.7.7 0 0 0 .7-.7V1.7a.7.7 0 0 0-.7-.7H2.7zm8 0a.7.7 0 0 0-.7.7v12.6a.7.7 0 0 0 .7.7h2.6a.7.7 0 0 0 .7-.7V1.7a.7.7 0 0 0-.7-.7h-2.6z"
                                fill='black'
                                stroke='black'
                                strokeWidth={0.4}
                            >
                            </path>
                        </svg>